# File created by Blade
# Date/Time:  Wed Apr 08 17:24:36 2015
# Frame Rate: 120.000 fps
#------------------------------------------------------
:FULLY-SPECIFIED
:DEGREES
1160
root 10.314479 38.647043 6.729159 200.881429 -11.724160 -136.347875
Spine 1.342918 3.733038 14.925278
Head -16.548960 3.035950 31.969380
LeftShoulder -6.213778 19.873667 23.533531
LeftArm 4.573007 26.832718 -78.162919
LeftForeArm 10.021742 0.000000 29.869797
LeftHand -13.439209 -0.000000 -15.091917
LeftHandThumb1 -26.253704 0.000000 33.147579
RightShoulder -42.635419 -46.877615 27.892213
RightArm 39.499004 -7.435562 63.482937
RightForeArm 46.494907 -0.000000 36.448300
RightHand -4.949262 -0.000000 8.980796
RightHandThumb1 -24.326973 -0.000000 -32.862282
LeftUpLeg -58.838335 48.648181 -2.896898
LeftLeg 18.693994 -0.000000 -0.000000
LeftFoot -12.487102 28.033236 -4.297749
LeftToeBase 2.559164 -0.000000 -0.000000
RightUpLeg -38.809414 -19.498997 -33.849465
RightLeg 154.595086 -0.000000 -0.000000
RightFoot 18.988674 10.858223 4.963265
RightToeBase -7.118485 -0.000000 0.000000
1161
root 10.317027 38.647667 6.726821 200.913776 -11.811503 -136.350579
Spine 1.337084 3.780901 14.824816
Head -16.606349 3.010459 31.996286
LeftShoulder -6.213718 19.922896 23.561159
LeftArm 4.584422 26.827090 -78.105791
LeftForeArm 9.988652 -0.000000 29.883022
LeftHand -13.374581 -0.000000 -15.151437
LeftHandThumb1 -26.253704 0.000000 33.147579
RightShoulder -42.803624 -46.978051 28.069830
RightArm 39.477955 -7.586007 63.366822
RightForeArm 46.530159 -0.000000 36.518642
RightHand -5.141995 -0.000000 8.977242
RightHandThumb1 -24.326973 -0.000000 -32.862282
LeftUpLeg -58.915067 48.573139 -2.926511
LeftLeg 18.699262 -0.000000 -0.000000
LeftFoot -12.439115 28.025709 -4.245990
LeftToeBase 2.542761 -0.000000 -0.000000
RightUpLeg -38.326407 -18.898074 -33.903064
RightLeg 154.717009 -0.000000 -0.000000
RightFoot 19.229801 11.283559 4.972473
RightToeBase -8.125090 -0.000000 0.000000
1162
root 10.316205 38.646614 6.727547 200.959110 -11.872609 -136.360937
Spine 1.333621 3.854892 14.713168
Head -16.687661 2.973117 32.007685
LeftShoulder -6.201913 19.930688 23.583614
LeftArm 4.546654 26.870241 -78.072446
LeftForeArm 9.949360 -0.000000 29.893417
LeftHand -13.274318 -0.000000 -15.018657
LeftHandThumb1 -26.253704 0.000000 33.147579
RightShoulder -42.798271 -47.015276 28.050226
RightArm 39.307536 -7.846921 63.235355
RightForeArm 46.476959 -0.000000 36.585704
RightHand -5.121670 0.000000 9.032246
RightHandThumb1 -24.326973 -0.000000 -32.862282
LeftUpLeg -58.991613 48.507277 -2.977917
LeftLeg 18.688876 -0.000000 -0.000000
LeftFoot -12.407210 28.031039 -4.180238
LeftToeBase 2.538866 -0.000000 -0.000000
RightUpLeg -37.887443 -18.360507 -33.876342
RightLeg 154.819169 -0.000000 -0.000000
RightFoot 19.124453 11.086998 5.287907
RightToeBase -7.567927 -0.000000 0.000000
1163
root 10.319870 38.647079 6.726753 201.000484 -11.938770 -136.357965
Spine 1.322982 3.913863 14.605835
Head -16.739326 2.948322 32.008336
LeftShoulder -6.209091 19.960044 23.611283
LeftArm 4.540563 26.906864 -78.024714
LeftForeArm 9.869393 -0.000000 29.885479
LeftHand -13.190776 -0.000000 -14.974451
LeftHandThumb1 -26.253704 0.000000 33.147579
RightShoulder -42.864308 -47.110030 28.125063
RightArm 39.192399 -8.051274 63.116502
RightForeArm 46.488916 -0.000000 36.793907
RightHand -5.270257 -0.000000 8.913890
RightHandThumb1 -24.326973 -0.000000 -32.862282
LeftUpLeg -59.087501 48.459230 -3.032142
LeftLeg 18.682407 -0.000000 -0.000000
LeftFoot -12.362869 28.016067 -4.103753
LeftToeBase 2.546489 -0.000000 -0.000000
RightUpLeg -37.448513 -17.816494 -33.847442
RightLeg 154.917061 -0.000000 -0.000000
RightFoot 19.188075 11.102801 5.155303
RightToeBase -7.706079 -0.000000 0.000000
1164
root 10.326208 38.644353 6.720666 200.952965 -12.065849 -136.363789
Spine 1.392477 3.896977 14.521944
Head -16.795578 2.900291 32.009078
LeftShoulder -6.216141 20.012200 23.623519
LeftArm 4.580428 26.926430 -77.962994
LeftForeArm 9.743639 -0.000000 29.860764
LeftHand -13.251125 -0.000000 -15.109756
LeftHandThumb1 -26.253704 0.000000 33.147579
RightShoulder -43.010165 -47.232606 28.290308
RightArm 39.158540 -8.237476 62.962658
RightForeArm 46.581194 -0.000000 37.009685
RightHand -5.512735 -0.000000 8.767335
RightHandThumb1 -24.326973 -0.000000 -32.862282
LeftUpLeg -59.084278 48.379984 -3.009684
LeftLeg 18.688211 -0.000000 -0.000000
LeftFoot -12.330663 28.003495 -4.019877
LeftToeBase 2.534866 -0.000000 -0.000000
RightUpLeg -36.831487 -17.188755 -33.850850
RightLeg 154.992340 -0.000000 -0.000000
RightFoot 19.323139 11.180917 5.314002
RightToeBase -7.902782 -0.000000 0.000000
1165
root 10.338117 38.624868 6.655750 199.549670 -12.427299 -136.390644
Spine 3.041225 3.298778 14.594152
Head -17.184080 3.046799 31.978324
LeftShoulder -6.216512 19.748874 23.645569
LeftArm 4.542863 26.771220 -78.054108
LeftForeArm 9.672558 0.000000 29.824324
LeftHand -13.266667 -0.000000 -15.008278
LeftHandThumb1 -26.253704 0.000000 33.147579
RightShoulder -42.756456 -47.165973 28.152188
RightArm 39.111410 -8.396215 62.902384
RightForeArm 46.527251 0.000000 37.093946
RightHand -5.381537 0.000000 8.810398
RightHandThumb1 -24.326973 -0.000000 -32.862282
LeftUpLeg -57.155759 48.338626 -1.589206
LeftLeg 18.728192 -0.000000 -0.000000
LeftFoot -12.407010 27.757192 -3.811352
LeftToeBase 2.581339 -0.000000 -0.000000
RightUpLeg -34.655421 -16.050721 -34.236489
RightLeg 154.848677 -0.000000 -0.000000
RightFoot 19.849508 11.251407 5.455461
RightToeBase -8.625128 -0.000000 0.000000
1166
root 10.344063 38.611984 6.613071 198.723062 -12.601538 -136.392864
Spine 4.020186 3.012241 14.578589
Head -17.391003 3.105886 31.967787
LeftShoulder -6.231559 19.647745 23.639310
LeftArm 4.545883 26.619991 -78.091071
LeftForeArm 9.695103 -0.000000 29.749365
LeftHand -13.229480 0.000000 -15.240666
LeftHandThumb1 -26.253704 0.000000 33.147579
RightShoulder -42.665125 -47.157309 28.087854
RightArm 39.066866 -8.564485 62.881465
RightForeArm 46.516822 -0.000000 37.164529
RightHand -5.673275 0.000000 8.830349
RightHandThumb1 -24.326973 -0.000000 -32.862282
LeftUpLeg -56.054230 48.389763 -0.826771
LeftLeg 18.719126 -0.000000 -0.000000
LeftFoot -12.459536 27.587075 -3.613214
LeftToeBase 2.659219 -0.000000 -0.000000
RightUpLeg -33.204169 -15.133980 -34.384957
RightLeg 154.801879 -0.000000 -0.000000
RightFoot 20.122206 11.342212 5.302279
RightToeBase -9.271787 -0.000000 0.000000
